<mxfile host="app.diagrams.net" modified="2024-02-20T18:23:51.256Z" agent="Mozilla/5.0 (Windows NT 10.0; Win64; x64) AppleWebKit/537.36 (KHTML, like Gecko) Chrome/120.0.0.0 Safari/537.36 OPR/106.0.0.0" version="23.1.5" etag="s7WVnQFDYbEyx6gbMOBh" type="github">
  <diagram name="Page-1" id="5DZ1eD3cJzPtm6hbSVRR">
    <mxGraphModel>
      <root>
        <mxCell id="0" />
        <mxCell id="1" parent="0" />
      </root>
    </mxGraphModel>
  </diagram>
</mxfile>
